REM DIRINDEX 1\2\4,1\2\5,1\2\6,1\3\7,1\3\8,1\3\9,1\3\10
REM DIRNAME folder01,folder02,folder03,folder04,folder05,folder06,folder07,folder08,folder09,folder10
TITLE ""
FILE "b_73.mp3" MP3
  TRACK 01 AUDIO
    TITLE "0:"
    INDEX 01 00:00:00
  TRACK 02 AUDIO
    TITLE "10:cjc058_5144"
    INDEX 01 00:00:15
  TRACK 03 AUDIO
    TITLE "0:"
    INDEX 01 00:03:29
  TRACK 04 AUDIO
    TITLE "7:cjc058_5145"
    INDEX 01 00:03:72
  TRACK 05 AUDIO
    TITLE "0:"
    INDEX 01 00:06:49
  TRACK 06 AUDIO
    TITLE "8:cjc058_5146"
    INDEX 01 00:07:03
  TRACK 07 AUDIO
    TITLE "0:"
    INDEX 01 00:09:69
  TRACK 08 AUDIO
    TITLE "9:cjc058_5147"
    INDEX 01 00:10:31
  TRACK 09 AUDIO
    TITLE "0:"
    INDEX 01 00:15:68
  TRACK 10 AUDIO
    TITLE "7:cjc058_5148"
    INDEX 01 00:16:71
  TRACK 11 AUDIO
    TITLE "0:"
    INDEX 01 00:18:62
  TRACK 12 AUDIO
    TITLE "8:cjc058_5149"
    INDEX 01 00:19:16
  TRACK 13 AUDIO
    TITLE "0:"
    INDEX 01 00:22:44
  TRACK 14 AUDIO
    TITLE "9:cjc058_5150"
    INDEX 01 00:23:06
  TRACK 15 AUDIO
    TITLE "0:"
    INDEX 01 00:25:45
  TRACK 16 AUDIO
    TITLE "7:cjc058_5151"
    INDEX 01 00:26:48
  TRACK 17 AUDIO
    TITLE "0:"
    INDEX 01 00:28:57
  TRACK 18 AUDIO
    TITLE "8:cjc058_5152"
    INDEX 01 00:29:11
  TRACK 19 AUDIO
    TITLE "0:"
    INDEX 01 00:32:13
  TRACK 20 AUDIO
    TITLE "9:cjc058_5153"
    INDEX 01 00:32:52
  TRACK 21 AUDIO
    TITLE "0:"
    INDEX 01 00:38:22
  TRACK 22 AUDIO
    TITLE "7:cjc058_5154"
    INDEX 01 00:39:25
  TRACK 23 AUDIO
    TITLE "0:"
    INDEX 01 00:41:45
  TRACK 24 AUDIO
    TITLE "8:cjc058_5155"
    INDEX 01 00:42:00
  TRACK 25 AUDIO
    TITLE "0:"
    INDEX 01 00:45:51
  TRACK 26 AUDIO
    TITLE "9:cjc058_5156"
    INDEX 01 00:46:15
  TRACK 27 AUDIO
    TITLE "0:"
    INDEX 01 00:49:29
  TRACK 28 AUDIO
    TITLE "7:cjc058_5157"
    INDEX 01 00:50:31
  TRACK 29 AUDIO
    TITLE "0:"
    INDEX 01 00:52:06
  TRACK 30 AUDIO
    TITLE "8:cjc058_5158"
    INDEX 01 00:52:36
  TRACK 31 AUDIO
    TITLE "0:"
    INDEX 01 00:54:62
  TRACK 32 AUDIO
    TITLE "9:cjc058_5159"
    INDEX 01 00:55:28
  TRACK 33 AUDIO
    TITLE "0:"
    INDEX 01 00:58:24
  TRACK 34 AUDIO
    TITLE "7:cjc058_5160"
    INDEX 01 00:59:26
  TRACK 35 AUDIO
    TITLE "0:"
    INDEX 01 01:02:01
  TRACK 36 AUDIO
    TITLE "8:cjc058_5161"
    INDEX 01 01:02:30
  TRACK 37 AUDIO
    TITLE "0:"
    INDEX 01 01:04:70
  TRACK 38 AUDIO
    TITLE "9:cjc058_5162"
    INDEX 01 01:05:36
  TRACK 39 AUDIO
    TITLE "0:"
    INDEX 01 01:09:05
  TRACK 40 AUDIO
    TITLE "7:cjc058_5163"
    INDEX 01 01:10:06
  TRACK 41 AUDIO
    TITLE "0:"
    INDEX 01 01:11:56
  TRACK 42 AUDIO
    TITLE "8:cjc058_5164"
    INDEX 01 01:12:09
  TRACK 43 AUDIO
    TITLE "0:"
    INDEX 01 01:14:45
  TRACK 44 AUDIO
    TITLE "9:cjc058_5165"
    INDEX 01 01:15:13
  TRACK 45 AUDIO
    TITLE "0:"
    INDEX 01 01:18:13
  TRACK 46 AUDIO
    TITLE "7:cjc058_5166"
    INDEX 01 01:19:13
  TRACK 47 AUDIO
    TITLE "0:"
    INDEX 01 01:20:42
  TRACK 48 AUDIO
    TITLE "8:cjc058_5167"
    INDEX 01 01:20:69
  TRACK 49 AUDIO
    TITLE "0:"
    INDEX 01 01:24:14
  TRACK 50 AUDIO
    TITLE "9:cjc058_5168"
    INDEX 01 01:24:51
  TRACK 51 AUDIO
    TITLE "0:"
    INDEX 01 01:27:71
  TRACK 52 AUDIO
    TITLE "7:cjc058_5169"
    INDEX 01 01:28:71
  TRACK 53 AUDIO
    TITLE "0:"
    INDEX 01 01:30:48
  TRACK 54 AUDIO
    TITLE "8:cjc058_5170"
    INDEX 01 01:31:02
  TRACK 55 AUDIO
    TITLE "0:"
    INDEX 01 01:33:33
  TRACK 56 AUDIO
    TITLE "9:cjc058_5171"
    INDEX 01 01:33:70
  TRACK 57 AUDIO
    TITLE "0:"
    INDEX 01 01:37:01
  TRACK 58 AUDIO
    TITLE "7:cjc058_5172"
    INDEX 01 01:38:02
  TRACK 59 AUDIO
    TITLE "0:"
    INDEX 01 01:39:63
  TRACK 60 AUDIO
    TITLE "8:cjc058_5173"
    INDEX 01 01:40:17
  TRACK 61 AUDIO
    TITLE "0:"
    INDEX 01 01:42:47
  TRACK 62 AUDIO
    TITLE "9:cjc058_5174"
    INDEX 01 01:43:07
  TRACK 63 AUDIO
    TITLE "0:"
    INDEX 01 01:45:73
  TRACK 64 AUDIO
    TITLE "7:cjc058_5175"
    INDEX 01 01:46:72
  TRACK 65 AUDIO
    TITLE "0:"
    INDEX 01 01:49:06
  TRACK 66 AUDIO
    TITLE "8:cjc058_5176"
    INDEX 01 01:49:35
  TRACK 67 AUDIO
    TITLE "0:"
    INDEX 01 01:51:09
  TRACK 68 AUDIO
    TITLE "9:cjc058_5177"
    INDEX 01 01:51:44
  TRACK 69 AUDIO
    TITLE "0:"
    INDEX 01 01:55:07
  TRACK 70 AUDIO
    TITLE "7:cjc058_5178"
    INDEX 01 01:56:10
  TRACK 71 AUDIO
    TITLE "0:"
    INDEX 01 01:57:70
  TRACK 72 AUDIO
    TITLE "8:cjc058_5179"
    INDEX 01 01:58:25
  TRACK 73 AUDIO
    TITLE "0:"
    INDEX 01 01:59:65
  TRACK 74 AUDIO
    TITLE "9:cjc058_5180"
    INDEX 01 02:00:29
  TRACK 75 AUDIO
    TITLE "0:"
    INDEX 01 02:04:53
  TRACK 76 AUDIO
    TITLE "7:cjc058_5181"
    INDEX 01 02:05:58
  TRACK 77 AUDIO
    TITLE "0:"
    INDEX 01 02:07:57
  TRACK 78 AUDIO
    TITLE "8:cjc058_5182"
    INDEX 01 02:08:11
  TRACK 79 AUDIO
    TITLE "0:"
    INDEX 01 02:09:71
  TRACK 80 AUDIO
    TITLE "9:cjc058_5183"
    INDEX 01 02:10:40
  TRACK 81 AUDIO
    TITLE "0:"
    INDEX 01 02:13:40
  TRACK 82 AUDIO
    TITLE "7:cjc058_5184"
    INDEX 01 02:14:45
  TRACK 83 AUDIO
    TITLE "0:"
    INDEX 01 02:15:68
  TRACK 84 AUDIO
    TITLE "8:cjc058_5185"
    INDEX 01 02:16:19
  TRACK 85 AUDIO
    TITLE "0:"
    INDEX 01 02:17:65
  TRACK 86 AUDIO
    TITLE "9:cjc058_5186"
    INDEX 01 02:18:31
  TRACK 87 AUDIO
    TITLE "0:"
    INDEX 01 02:21:04
